<?xml version="1.0" encoding="utf-8"?>
<!-- Generator: Adobe Illustrator 26.2.1, SVG Export Plug-In . SVG Version: 6.00 Build 0)  -->
<svg version="1.1" id="Layer_1" xmlns="http://www.w3.org/2000/svg" xmlns:xlink="http://www.w3.org/1999/xlink" x="0px" y="0px"
	 viewBox="0 0 114 32" style="enable-background:new 0 0 114 32;" xml:space="preserve">
<style type="text/css">
	.st0{fill:#FFFFFF;}
	.st1{fill-rule:evenodd;clip-rule:evenodd;fill:url(#SVGID_1_);}
	.st2{fill-rule:evenodd;clip-rule:evenodd;fill:url(#SVGID_00000003789679863616501390000017065383266503364006_);}
	.st3{fill-rule:evenodd;clip-rule:evenodd;fill:url(#SVGID_00000088092111159305605110000005348682815186739103_);}
	.st4{fill-rule:evenodd;clip-rule:evenodd;fill:url(#SVGID_00000030450769888965849480000008243103223471073946_);}
	.st5{fill-rule:evenodd;clip-rule:evenodd;fill:url(#SVGID_00000066475021707672457260000015590591821032061831_);}
	.st6{fill-rule:evenodd;clip-rule:evenodd;fill:url(#SVGID_00000035506778624690217740000003682371716102558363_);}
	.st7{fill-rule:evenodd;clip-rule:evenodd;fill:url(#SVGID_00000040538494326900338660000014443790841480656047_);}
	.st8{fill-rule:evenodd;clip-rule:evenodd;fill:url(#SVGID_00000180326624113120625810000003516078851271704204_);}
	.st9{fill-rule:evenodd;clip-rule:evenodd;fill:url(#SVGID_00000171704502203429124310000003139611401547345836_);}
	.st10{fill:url(#SVGID_00000069395596028886696360000014052897601229331843_);}
	.st11{fill-rule:evenodd;clip-rule:evenodd;fill:url(#SVGID_00000093860949926821651440000010239883541621153469_);}
	.st12{fill-rule:evenodd;clip-rule:evenodd;fill:url(#SVGID_00000083796700663896563110000018233501586502657431_);}
	.st13{fill-rule:evenodd;clip-rule:evenodd;fill:url(#SVGID_00000078747136888258678930000006330531088239020194_);}
	.st14{fill-rule:evenodd;clip-rule:evenodd;fill:url(#SVGID_00000103945869745505411210000005543141262154018960_);}
	.st15{fill-rule:evenodd;clip-rule:evenodd;fill:#4F5195;}
	.st16{fill-rule:evenodd;clip-rule:evenodd;fill:url(#SVGID_00000058579307031616545170000006475162840594587567_);}
	.st17{fill-rule:evenodd;clip-rule:evenodd;fill:url(#SVGID_00000029019986383944608300000007246371318774260359_);}
	.st18{fill-rule:evenodd;clip-rule:evenodd;fill:url(#SVGID_00000044176059546034557040000015659658581327326645_);}
	.st19{fill-rule:evenodd;clip-rule:evenodd;fill:#A19DDD;}
	.st20{fill-rule:evenodd;clip-rule:evenodd;fill:url(#SVGID_00000013913262478055248040000014350729371724823944_);}
	.st21{fill-rule:evenodd;clip-rule:evenodd;fill:url(#SVGID_00000001622383404649288650000017460326907634219438_);}
	.st22{fill-rule:evenodd;clip-rule:evenodd;fill:#180833;}
	.st23{fill-rule:evenodd;clip-rule:evenodd;fill:#220D33;}
	.st24{fill-rule:evenodd;clip-rule:evenodd;fill:#B64F6D;}
	.st25{fill-rule:evenodd;clip-rule:evenodd;fill:url(#SVGID_00000146477776881759007950000015707867631960647862_);}
	.st26{fill-rule:evenodd;clip-rule:evenodd;fill:#B5526F;}
	.st27{fill-rule:evenodd;clip-rule:evenodd;fill:url(#SVGID_00000178904031369291195120000003284465276788984488_);}
	.st28{fill-rule:evenodd;clip-rule:evenodd;fill:url(#SVGID_00000146486238035463505320000008289967395272066699_);}
</style>
<g>
	<path class="st0" d="M40.3,22.2l2.9-12.4h4.1l0.1,7.4h0.3l3.5-7.4h4.4l-2.9,12.4h-2.8l2-8.8h-0.3l-3.5,7.1h-2.8l-0.2-7.1h-0.3
		l-2,8.8H40.3z"/>
	<path class="st0" d="M56.3,22.2L55,20.5l0.7-2.9l1.7-1.4h3.7l0.2-0.8L61,15.1h-3.8l0.5-2.1h5l1.4,1.8l-1.7,7.3h-2.1l0.2-0.7h-0.2
		l-0.9,0.7H56.3z M58,20.1h1.7l0.6-0.4l0.4-1.8h-2.1l-0.3,0.3l-0.4,1.7L58,20.1z"/>
	<path class="st0" d="M63.7,25.7l0.5-2.2h4.2l0.3-0.3l0.4-1.6H69l-0.7,0.5h-2.5l-1.5-1.9l1.3-5.5l2-1.6h6.1l-2.6,11.2l-1.8,1.4H63.7
		z M67.5,20h1.4l0.7-0.5l1-4.2h-2l-0.6,0.5l-0.9,3.9L67.5,20z"/>
	<path class="st0" d="M73.5,22.2l2.1-9.1h2.7l-2.1,9.1H73.5z M75.9,11.7l0.5-2H79l-0.5,2H75.9z"/>
	<path class="st0" d="M79.7,22.2l-1.5-1.9l1.3-5.5l2-1.6h5l-0.5,2.2h-3.6l-0.6,0.5L81,19.6l0.3,0.4H85l-0.5,2.2H79.7z"/>
	<path class="st0" d="M87.5,22.2L86,20.2l1.3-5.5l2-1.6h4.3l1.5,1.9l-1.3,5.5l-2,1.7H87.5z M89.1,20h1.7l0.6-0.5l0.9-3.9l-0.3-0.4
		h-1.7l-0.6,0.5l-0.9,3.9L89.1,20z"/>
	<path class="st0" d="M95.1,22.2l2.1-9.1h2.1l-0.2,0.6h0.2l0.9-0.6h2.4l-0.5,2.2h-2.3l-0.7,0.4l-1.5,6.4H95.1z"/>
	<path class="st0" d="M101.4,22.2l2.1-9.1h2.1l-0.2,0.6h0.2l0.9-0.6h2.8l1.4,1.8l-1.7,7.2h-2.6l1.5-6.6l-0.3-0.3h-1.5l-0.7,0.4
		l-1.5,6.5H101.4z"/>
</g>
<g>
	<g>
		<linearGradient id="SVGID_1_" gradientUnits="userSpaceOnUse" x1="27.3355" y1="29.8588" x2="11.3328" y2="2.1413">
			<stop  offset="0" style="stop-color:#111114"/>
			<stop  offset="1" style="stop-color:#303035"/>
		</linearGradient>
		<path class="st1" d="M35.3,16c0,3.7-1.2,7.1-3.3,9.8c0,0,0,0,0,0c0,0,0,0,0,0.1c0,0,0,0,0,0c-0.2,0.3-0.5,0.6-0.7,0.8c0,0,0,0,0,0
			c-0.1,0.1-0.2,0.3-0.4,0.4c-0.1,0.1-0.1,0.1-0.2,0.2c-0.8,0.8-1.7,1.5-2.6,2.1c-0.1,0-0.1,0.1-0.2,0.1c-0.1,0-0.1,0.1-0.2,0.1
			c0,0,0,0,0,0c-0.9,0.5-1.8,1-2.8,1.4c-0.2,0.1-0.4,0.1-0.6,0.2C22.7,31.7,21,32,19.3,32c-0.2,0-0.4,0-0.5,0c-0.2,0-0.4,0-0.6,0
			c-0.2,0-0.4,0-0.6-0.1c-0.2,0-0.4-0.1-0.6-0.1c-0.1,0-0.2,0-0.3-0.1c-1-0.2-1.9-0.4-2.8-0.7c-0.2-0.1-0.3-0.1-0.5-0.2
			c-0.1,0-0.2-0.1-0.3-0.1c-0.2-0.1-0.5-0.2-0.7-0.3c-0.2-0.1-0.4-0.2-0.5-0.3c0,0-0.1,0-0.1-0.1c0,0-0.1-0.1-0.1-0.1
			c-0.3-0.2-0.5-0.3-0.8-0.5c0,0,0,0,0,0c-0.1-0.1-0.2-0.1-0.3-0.2C6.2,26.4,3.3,21.5,3.3,16c0-8.8,7.2-16,16-16
			C28.2,0,35.3,7.2,35.3,16z"/>
		
			<linearGradient id="SVGID_00000008109159480885406530000010589669776625319870_" gradientUnits="userSpaceOnUse" x1="15.9747" y1="31.8176" x2="15.9747" y2="28.1146">
			<stop  offset="3.351960e-02" style="stop-color:#84A1FF"/>
			<stop  offset="0.9829" style="stop-color:#5B72EC"/>
		</linearGradient>
		<path style="fill-rule:evenodd;clip-rule:evenodd;fill:url(#SVGID_00000008109159480885406530000010589669776625319870_);" d="
			M18.2,28.1C18.1,28.1,18.1,28.1,18.2,28.1c0,0.1-0.4,0.8-0.8,2c-0.2,0.5-0.3,1.1-0.5,1.7c-0.1,0-0.2,0-0.3-0.1
			c-1-0.2-1.9-0.4-2.8-0.7c0.1-0.1,0.2-0.2,0.3-0.3c0.1-0.1,0.2-0.2,0.4-0.3c0.9-0.7,1.6-1.3,2.2-1.6c0.6-0.4,1.1-0.6,1.3-0.6l0,0
			C18.1,28.1,18.1,28.1,18.2,28.1C18.2,28.1,18.2,28.1,18.2,28.1z"/>
		
			<linearGradient id="SVGID_00000076592596983163350130000017672730288650825103_" gradientUnits="userSpaceOnUse" x1="16.1546" y1="29.4698" x2="16.1546" y2="22.5325">
			<stop  offset="1.711450e-02" style="stop-color:#FFA451"/>
			<stop  offset="0.9665" style="stop-color:#FF515E"/>
		</linearGradient>
		<path style="fill-rule:evenodd;clip-rule:evenodd;fill:url(#SVGID_00000076592596983163350130000017672730288650825103_);" d="
			M21.9,22.5l-0.4,0.6l0,0l0,0.1l-0.2,0.2l0,0.1L21,23.8L21,23.9l-0.8,1.2l0,0c0,0,0,0,0,0c0,0-0.6,0.8-1.7,0.9
			c-0.3,0-0.8,0.1-1.4,0.1c-0.5,0-1.2,0.1-1.8,0.2c0,0,0,0,0,0c0.3-0.3,0.5-0.5,0.8-0.7c-0.3,0-0.6,0-0.8,0
			c-0.3,0.2-1.9,0.5-2.8,1.2c-0.8,0.7-1.5,2-1.8,2.7c-0.1-0.1-0.2-0.1-0.3-0.2c0.3-0.9,0.9-2,1.8-3c0.4-0.4,0.9-0.7,1.4-0.9
			c0,0,0,0,0,0c0.3-0.1,0.6-0.2,1-0.3c1.1-0.3,2.2-0.3,3.1-0.4c0.2,0,0.3,0,0.5-0.1c0,0,0,0,0,0c0.1,0,0.2,0,0.3,0h0
			c0.3-0.1,0.5-0.1,0.7-0.2c0.8-0.3,1.4-0.8,1.9-1.1c0,0,0.1-0.1,0.1-0.1C21.6,22.8,21.8,22.6,21.9,22.5z"/>
		
			<linearGradient id="SVGID_00000170243635238074367710000006788185962289448073_" gradientUnits="userSpaceOnUse" x1="15.8362" y1="31.7622" x2="15.8362" y2="25.7248">
			<stop  offset="3.351960e-02" style="stop-color:#D36FFF"/>
			<stop  offset="0.9829" style="stop-color:#A240EC"/>
		</linearGradient>
		<path style="fill-rule:evenodd;clip-rule:evenodd;fill:url(#SVGID_00000170243635238074367710000006788185962289448073_);" d="
			M19.9,25.7c-0.1,0.2-0.2,0.4-0.2,0.6c0,0,0,0.1,0,0.1l0,0c0,0,0,0,0,0l-0.2,0.4l0,0c0,0-0.2,0.1-0.4,0.3c0,0,0,0,0,0c0,0,0,0,0,0
			c0,0,0,0,0,0c0,0,0,0,0,0c0,0,0,0,0,0c0,0,0,0,0,0c0,0-0.1,0-0.1,0.1c0,0,0,0,0,0c0,0,0,0,0,0c0,0,0,0,0,0c0,0,0,0,0,0
			c0,0,0,0,0,0c-0.1,0.1-0.2,0.2-0.4,0.4c0,0,0,0,0,0c0,0,0,0-0.1,0.1c0,0,0,0.1-0.1,0.1c0,0.1-0.1,0.1-0.1,0.2c0,0,0,0,0,0
			c-0.1,0.2-0.2,0.4-0.4,0.6c0,0.1-0.1,0.1-0.1,0.2c0,0,0,0,0,0c0,0,0,0,0,0.1c-0.2,0.4-0.4,0.8-0.5,1.3c-0.2,0.6-0.4,1.1-0.5,1.5
			c-1-0.2-1.9-0.4-2.8-0.7c-0.2-0.1-0.3-0.1-0.5-0.2c-0.1,0-0.2-0.1-0.3-0.1c-0.2-0.1-0.5-0.2-0.7-0.3c-0.2-0.1-0.4-0.2-0.5-0.3
			c0.8-0.4,1.6-0.8,2.4-1.3c1.1-0.6,2.2-1.2,3.2-1.7C18.9,26.3,19.9,25.7,19.9,25.7z"/>
		
			<linearGradient id="SVGID_00000010993310761163413120000010139405599215953825_" gradientUnits="userSpaceOnUse" x1="15.9929" y1="30.8323" x2="15.9929" y2="24.3453">
			<stop  offset="1.711450e-02" style="stop-color:#FF7288"/>
			<stop  offset="0.9665" style="stop-color:#FF11A1"/>
		</linearGradient>
		<path style="fill-rule:evenodd;clip-rule:evenodd;fill:url(#SVGID_00000010993310761163413120000010139405599215953825_);" d="
			M20.5,24.3l-0.3,0.7l0,0l0,0.1c0,0,0,0,0,0.1c-0.1,0.2-0.2,0.4-0.2,0.6c-0.1,0.2-0.2,0.4-0.2,0.6c0,0,0,0.1,0,0.1l0,0c0,0,0,0,0,0
			c-0.1,0-0.9,0.5-1.6,1.8l0,0c-0.1,0.1-0.1,0.2-0.1,0.3c0,0.1,0,0.1-0.1,0.2c0,0,0,0,0,0c0,0.1-0.1,0.1-0.1,0.2c0,0,0,0,0,0
			c0,0,0,0,0,0.1c-0.6,1-1.8,1.5-3.5,1.8c-0.3,0-0.5,0.1-0.8,0.1c-0.1,0-0.2-0.1-0.3-0.1c-0.2-0.1-0.5-0.2-0.7-0.3
			c-0.2-0.1-0.4-0.2-0.5-0.3c0,0-0.1,0-0.1-0.1c0,0-0.1-0.1-0.1-0.1c0.1-0.1,0.2-0.1,0.3-0.2c1.3-0.9,2.4-2.4,3.3-3.4h0
			c0,0,0.1-0.1,0.1-0.1c0.3-0.3,0.5-0.5,0.8-0.7c0,0,0,0,0,0c0,0,0,0,0.1,0c0,0,0,0,0,0c0,0,0.1-0.1,0.1-0.1
			c0.6-0.3,1.3-0.6,1.9-0.7c0,0,0,0,0,0c0.1,0,0.2-0.1,0.4-0.1c0.5-0.1,0.9-0.2,1.3-0.2h0C20.2,24.4,20.4,24.3,20.5,24.3
			C20.5,24.3,20.5,24.3,20.5,24.3z"/>
		
			<linearGradient id="SVGID_00000156550984291672056040000015971748157973629367_" gradientUnits="userSpaceOnUse" x1="18.2218" y1="31.9562" x2="18.2218" y2="27.0928">
			<stop  offset="1.711450e-02" style="stop-color:#5BC9EC"/>
			<stop  offset="0.9665" style="stop-color:#84A1FF"/>
		</linearGradient>
		<path style="fill-rule:evenodd;clip-rule:evenodd;fill:url(#SVGID_00000156550984291672056040000015971748157973629367_);" d="
			M17.9,30.7c0.1,0.4,0.2,0.8,0.2,1.2c-0.2,0-0.4,0-0.6-0.1c0-0.7-0.2-1.3-0.2-1.8c0-0.4,0.1-0.7,0.3-1.1c0,0,0,0,0-0.1c0,0,0,0,0,0
			c0-0.1,0.1-0.2,0.1-0.2c0.1-0.2,0.2-0.4,0.3-0.5c0-0.1,0.1-0.1,0.1-0.2c0,0,0-0.1,0.1-0.1c0,0,0,0,0.1-0.1c0,0,0,0,0,0
			c0.1-0.2,0.3-0.3,0.4-0.4c0,0,0,0,0,0c0,0,0,0,0,0l0,0c0,0,0,0,0,0c0,0,0,0,0,0c0,0,0.1-0.1,0.1-0.1c0,0,0,0,0,0c0,0,0,0,0,0
			c0,0,0,0,0,0c0,0,0,0,0,0c0,0,0,0,0,0c0,0,0,0,0,0c0,0,0,0,0,0C19,27.1,17.5,29,17.9,30.7z"/>
		
			<linearGradient id="SVGID_00000128480369445969688330000001155714692112951956_" gradientUnits="userSpaceOnUse" x1="14.9153" y1="15.3238" x2="14.9153" y2="10.0253">
			<stop  offset="1.711450e-02" style="stop-color:#FF7288"/>
			<stop  offset="0.9665" style="stop-color:#FF11A1"/>
		</linearGradient>
		<path style="fill-rule:evenodd;clip-rule:evenodd;fill:url(#SVGID_00000128480369445969688330000001155714692112951956_);" d="
			M16.4,12c-1.5,1.2-2.1,3.4-2.1,3.4s0,0,0,0c0,0,0,0,0,0c-0.2-0.3-1.4-2.3-0.7-3.4c0.1-0.1,0.1-0.2,0.3-0.3
			c0.9-0.7,1.3-1.2,1.5-1.5c0.1-0.1,0.1-0.1,0.1-0.1l0.6,1.2L16.4,12z"/>
		
			<linearGradient id="SVGID_00000114038299832218351660000016443788165559503532_" gradientUnits="userSpaceOnUse" x1="24.7166" y1="32" x2="24.7166" y2="16.7795">
			<stop  offset="1.711450e-02" style="stop-color:#E4DEEC"/>
			<stop  offset="1" style="stop-color:#CFBFEB"/>
		</linearGradient>
		<path style="fill-rule:evenodd;clip-rule:evenodd;fill:url(#SVGID_00000114038299832218351660000016443788165559503532_);" d="
			M30.9,27.1c-0.1,0.1-0.1,0.1-0.2,0.2c-0.8,0.8-1.7,1.5-2.6,2.1c-0.1,0-0.1,0.1-0.2,0.1c-0.1,0-0.1,0.1-0.2,0.1c0,0,0,0,0,0
			c-0.9,0.5-1.8,1-2.8,1.4c-0.2,0.1-0.4,0.1-0.6,0.2C22.7,31.7,21,32,19.3,32c-0.2,0-0.4,0-0.5,0c-0.2-0.9-0.3-1.9-0.2-2.5
			c0.1-0.9,0.3-1.3,0.8-2.6l0,0c0.1-0.1,0.1-0.3,0.2-0.5l0,0c0,0,0-0.1,0-0.1c0.1-0.2,0.2-0.4,0.2-0.6c0.1-0.2,0.2-0.4,0.2-0.6
			c0,0,0,0,0-0.1s0,0,0-0.1c0.1-0.3,0.2-0.5,0.3-0.7c0.1-0.2,0.1-0.4,0.2-0.5c0.1-0.2,0.1-0.3,0.1-0.3c0.1,0,0.2-0.1,0.3-0.1h0
			c0.1,0,0.1,0,0.2-0.1c0,0,0,0,0,0c0.2-0.1,0.4-0.2,0.6-0.3c0,0,0,0,0,0c1.3-0.6,2.4-1.7,3.3-2.7c0,0,0,0,0,0
			c0.7-0.8,1.2-1.6,1.6-2.2v0c0.5-0.8,0.7-1.4,0.7-1.4s0.1,0.2,0.2,0.5c0,0,0,0.1,0,0.1c0,0,0,0,0,0c0,0,0,0.1,0.1,0.1
			c0.2,0.6,0.5,1.4,0.9,2.4c0,0.1,0.1,0.2,0.1,0.3v0c0.1,0.2,0.2,0.5,0.2,0.7c0,0,0,0,0,0.1c0,0.1,0.1,0.2,0.1,0.4c0,0,0,0,0,0.1
			c0.1,0.2,0.1,0.3,0.2,0.5c0.2,0.5,0.4,1,0.5,1.5c0.2,0.5,0.3,1,0.5,1.4c0.2,0.7,0.4,1.4,0.6,2C30.8,27,30.9,27,30.9,27.1z"/>
		
			<linearGradient id="SVGID_00000149379755059661475780000009012374411680116391_" gradientUnits="userSpaceOnUse" x1="20.4905" y1="25.636" x2="20.4905" y2="9.7445">
			<stop  offset="0" style="stop-color:#CFBFEB"/>
			<stop  offset="0.9829" style="stop-color:#E4DEEC"/>
		</linearGradient>
		<path style="fill-rule:evenodd;clip-rule:evenodd;fill:url(#SVGID_00000149379755059661475780000009012374411680116391_);" d="
			M25.5,22.6c-1.4,0.9-4.1,1-4.8,1.3c-0.7,0.3-2.1,1.5-2.8,1.7c-0.7,0.2-1.5-0.1-1.5-0.1s-0.9,0.1-1.2,0c-0.3-0.1-1.9-1.7-2-3.1
			c-0.1-1.2,1.5-2.4,1.6-3c0.1-0.6-0.5-2.9-0.4-4.3c0.1-1.4,2.1-4.2,4.8-5.1c3.8-1.1,7.5,0.2,8.4,3.6C28.4,17.1,27.1,21.6,25.5,22.6
			z"/>
		
			<linearGradient id="SVGID_00000138550028360353490460000011473649297240143802_" gradientUnits="userSpaceOnUse" x1="51.0985" y1="14.3509" x2="51.0985" y2="3.57" gradientTransform="matrix(0.9886 0.1507 -0.1424 0.9344 -32.9031 -8.416)">
			<stop  offset="0" style="stop-color:#FF8757"/>
			<stop  offset="0.984" style="stop-color:#FFB34C"/>
		</linearGradient>
		<path style="fill:url(#SVGID_00000138550028360353490460000011473649297240143802_);" d="M19.5,11.5c0,0-1.1,1.8-3.4,1.2
			c0,0-1-1-0.8-2.5l0-0.2c0,0-1.4-0.8-0.9-3.2c0,0-1.3-2.4-1-4.9c0,0,0,0,0,0c0.2,0.2,1.8,1.2,1.7,2.5c0,0,2.7,1.3,2,3.3
			C17.2,7.9,19.5,9.8,19.5,11.5z"/>
		
			<linearGradient id="SVGID_00000110433114502601201110000003180583309011327162_" gradientUnits="userSpaceOnUse" x1="15.4704" y1="65.6693" x2="15.4704" y2="58.9175" gradientTransform="matrix(0.9941 -0.1081 0.1081 0.9941 4.5104 -50.0898)">
			<stop  offset="1.711450e-02" style="stop-color:#E4DEEC"/>
			<stop  offset="1" style="stop-color:#CFBFEB"/>
		</linearGradient>
		<path style="fill-rule:evenodd;clip-rule:evenodd;fill:url(#SVGID_00000110433114502601201110000003180583309011327162_);" d="
			M23.7,11.1c0,0,0.4-0.2,0.8-1.1c0.4-0.9,2.3-3.3,4.9-3.5c0,0-0.5,3-0.9,4.6c-0.4,1.6-2,2.5-2.5,2.6C25.4,13.7,23.5,13.6,23.7,11.1
			z"/>
		
			<linearGradient id="SVGID_00000077292586201943509490000005922924449681083835_" gradientUnits="userSpaceOnUse" x1="22.3427" y1="14.0712" x2="22.3427" y2="5.8925">
			<stop  offset="1.711450e-02" style="stop-color:#A272EC"/>
			<stop  offset="0.9665" style="stop-color:#D36FFF"/>
		</linearGradient>
		<path style="fill-rule:evenodd;clip-rule:evenodd;fill:url(#SVGID_00000077292586201943509490000005922924449681083835_);" d="
			M25.9,13.8c-2,0.9-6.4-0.4-6.9-1.9c-0.1-0.4-0.2-0.8-0.2-1.3c-0.2-1.6,0-3.7,0.8-4.2c1-0.6,2.3-0.5,2.3-0.5
			c1.2,1.4,2.5,2.7,2.6,2.8c-0.1-0.1-1.3-1.1-1.4-1.1c-0.2,0-1.2,1.2-0.3,3.6C23.7,13.7,25.9,13.8,25.9,13.8z"/>
		
			<linearGradient id="SVGID_00000110435578599473956260000010298040339786303889_" gradientUnits="userSpaceOnUse" x1="23.5131" y1="12.7564" x2="23.5131" y2="7.2297">
			<stop  offset="1.711450e-02" style="stop-color:#5B72EC"/>
			<stop  offset="0.9665" style="stop-color:#84A1FF"/>
		</linearGradient>
		<path style="fill-rule:evenodd;clip-rule:evenodd;fill:url(#SVGID_00000110435578599473956260000010298040339786303889_);" d="
			M24.9,9.2c0,0-1-1-1.9-1.8c-0.9-0.8-1.9,3.5,0.6,5.4c0,0-0.8-3.3-0.2-3.8c0.6-0.6,1.3,0.5,1.3,0.5L24.9,9.2z"/>
		
			<linearGradient id="SVGID_00000179640607386283224480000005385520629239884680_" gradientUnits="userSpaceOnUse" x1="13.2582" y1="14.1726" x2="13.2582" y2="10.2715">
			<stop  offset="1.711450e-02" style="stop-color:#FFA451"/>
			<stop  offset="0.9665" style="stop-color:#FF515E"/>
		</linearGradient>
		<path style="fill-rule:evenodd;clip-rule:evenodd;fill:url(#SVGID_00000179640607386283224480000005385520629239884680_);" d="
			M15.3,10.3c0,0-0.2,0.4-2.2,0.8c-2,0.4-2.1,1.9-1.9,3.1c0,0,0.3-1.5,1.5-2.1C14,11.4,15.1,11.2,15.3,10.3z"/>
		<path class="st15" d="M24.9,9.2c0,0-0.8-0.8-1.4-0.8c-0.8,0-0.1,3.6-0.1,3.6S24.3,10.1,24.9,9.2z"/>
		
			<linearGradient id="SVGID_00000173873103827704367640000014653018206974994613_" gradientUnits="userSpaceOnUse" x1="28.1216" y1="31.2342" x2="28.1216" y2="18.463">
			<stop  offset="3.351960e-02" style="stop-color:#D36FFF"/>
			<stop  offset="0.9829" style="stop-color:#A240EC"/>
		</linearGradient>
		<path style="fill-rule:evenodd;clip-rule:evenodd;fill:url(#SVGID_00000173873103827704367640000014653018206974994613_);" d="
			M32,25.7c0,0,0,0.1,0,0.1c0,0,0,0,0,0.1c0,0,0,0,0,0c-0.2,0.3-0.5,0.6-0.7,0.8c0,0,0,0,0,0c-0.1,0.1-0.2,0.3-0.4,0.4
			c-0.1,0.1-0.1,0.1-0.2,0.2c-0.8,0.8-1.7,1.5-2.6,2.1c-0.1,0-0.1,0.1-0.2,0.1c-0.1,0-0.1,0.1-0.2,0.1c0,0,0,0,0,0
			c-0.9,0.5-1.8,1-2.8,1.4c-0.2,0.1-0.4,0.1-0.6,0.2c0.1-0.2,0.2-0.4,0.3-0.6c0.3-0.5,0.8-1,1.3-1.6c0.6-0.6,1.3-1.3,1.9-2
			c0,0,0,0,0,0c0.6-0.7,1.2-1.5,1.4-2.4c0.2-0.7,0.2-1.4,0.2-1.9c0-0.3,0-0.5,0-0.7c0-0.4-0.1-0.6-0.1-0.9c0,0,0,0,0,0
			c0,0,0,0,0-0.1c0,0,0,0,0-0.1c-0.1-0.3-0.1-0.4-0.1-0.4l0.1-0.9v0l0.1-1.2c0,0,0,0,0,0c0,0,0.3,0.3,0.6,0.8
			c0.2,0.3,0.5,0.8,0.8,1.3c0.5,0.9,1,2,1.2,3.1C32,24.3,32,25,32,25.7z"/>
		
			<linearGradient id="SVGID_00000102540149059961175980000017650539225862307735_" gradientUnits="userSpaceOnUse" x1="28.7499" y1="29.6589" x2="28.7499" y2="20.2579">
			<stop  offset="1.711450e-02" style="stop-color:#FF7288"/>
			<stop  offset="0.9665" style="stop-color:#FF11A1"/>
		</linearGradient>
		<path style="fill-rule:evenodd;clip-rule:evenodd;fill:url(#SVGID_00000102540149059961175980000017650539225862307735_);" d="
			M29.8,23.5c-0.1,2.6-1.3,5-2,6c-0.1,0-0.1,0.1-0.2,0.1c0,0,0,0,0,0c0.1-0.4,0.2-0.9,0.1-1.7c0-0.3-0.1-0.6-0.1-0.9
			c0-1.4,0.3-2.7,0.3-2.7c0,0,0,0,0,0c0,0,0,0,0,0c0,0,0,0,0,0c0,0,0,0,0,0c0-0.1,0.1-0.1,0.1-0.2c0,0,0,0,0,0c0,0,0,0,0,0
			c0-0.1,0.1-0.1,0.1-0.2c0,0,0,0,0,0c0.1-0.1,0.1-0.2,0.2-0.3c0,0,0,0,0,0c0,0,0,0,0,0c0,0,0,0,0,0c0,0,0,0,0,0
			c0.4-0.8,0.6-1.5,0.7-2.1c0-0.1,0.1-0.3,0.1-0.4c0-0.1,0-0.1,0-0.2c0.1-0.4,0.1-0.6,0.1-0.7c0,0,0,0,0,0c0,0,0,0,0,0c0,0,0,0,0,0
			c0.1,0.2,0.1,0.4,0.2,0.6C29.8,21.8,29.9,22.7,29.8,23.5z"/>
		
			<linearGradient id="SVGID_00000123408736868760932880000010753204536197389220_" gradientUnits="userSpaceOnUse" x1="27.6387" y1="26.3436" x2="27.6387" y2="12.756">
			<stop  offset="3.351960e-02" style="stop-color:#84A1FF"/>
			<stop  offset="0.9829" style="stop-color:#5B72EC"/>
		</linearGradient>
		<path style="fill-rule:evenodd;clip-rule:evenodd;fill:url(#SVGID_00000123408736868760932880000010753204536197389220_);" d="
			M29.3,20.3L29.3,20.3c0,0.3-0.1,0.5-0.1,0.8c-0.1,0.8-0.4,1.7-0.8,2.5c0,0,0,0,0,0.1c-0.1,0.1-0.1,0.2-0.2,0.3
			c0,0.1-0.1,0.1-0.1,0.2c0,0.1-0.1,0.1-0.1,0.2c0,0,0,0,0,0c0,0,0,0,0,0c-0.5,0.8-1.2,1.5-2,2c0,0,0,0,0,0c0,0,0,0,0,0
			c0.1-0.1,2.2-4.7,1.9-7.5c-0.1-0.7-0.2-1.5-0.3-2.2l0-0.2c-0.2-1.7-0.4-3-0.5-3.3l0-0.1l0.4-0.3c0,0,0.9,3.8,1.6,4.9
			c0.1,0.2,0.2,0.4,0.2,0.8C29.4,18.9,29.4,19.6,29.3,20.3z"/>
		<path class="st19" d="M19.5,19.8c0,0,0.9,0.3,2.1,0.1c1.2-0.3,1.4-1.6,1.4-1.6S21.5,19.4,19.5,19.8z"/>
		<path class="st19" d="M18.8,17.5c0,0,0.2-0.9,1.1-1.5c0.9-0.6,2.9,0,3.2,1.3C23.1,17.3,20.2,17,18.8,17.5z"/>
		
			<linearGradient id="SVGID_00000179627561830653519060000010248245899939186111_" gradientUnits="userSpaceOnUse" x1="20.8876" y1="19.8427" x2="20.8876" y2="16.3212">
			<stop  offset="0" style="stop-color:#FFFFFF"/>
			<stop  offset="1" style="stop-color:#BDBFFF"/>
		</linearGradient>
		<path style="fill-rule:evenodd;clip-rule:evenodd;fill:url(#SVGID_00000179627561830653519060000010248245899939186111_);" d="
			M19,19.6c0.3,0.3,1.3,0.4,2.3,0.1c1.1-0.3,1.5-0.9,1.6-1.2c0.1-0.3,0.1-1.1,0.1-1.2c0-0.1-0.7-0.9-1.8-1c-0.9-0.1-2.2,0.3-2.5,1.2
			C18.6,18,18.8,19.3,19,19.6z"/>
		
			<linearGradient id="SVGID_00000129893910474907581460000001361375180666177469_" gradientUnits="userSpaceOnUse" x1="21.2916" y1="19.5171" x2="21.2916" y2="16.2316">
			<stop  offset="5.586590e-03" style="stop-color:#634F90"/>
			<stop  offset="1" style="stop-color:#3B0643"/>
		</linearGradient>
		
			<circle style="fill-rule:evenodd;clip-rule:evenodd;fill:url(#SVGID_00000129893910474907581460000001361375180666177469_);" cx="21.3" cy="17.9" r="1.6"/>
		<circle class="st22" cx="21.3" cy="17.9" r="1.2"/>
		<path class="st23" d="M18.7,17.7c0,0,0.2-0.9,1.8-1.2c1.6-0.3,2.6,0.8,2.6,0.8s0.7-0.2,1.1-0.8c0,0-0.8,0.4-1.2,0.2
			c0,0-1.1-0.8-2.5-0.5C19,16.5,18.7,17.7,18.7,17.7z"/>
		<path class="st24" d="M18.8,19.1c0,0,0,0.7,0.1,0.8c0.1,0,0.8,0,0.8,0S19,19.8,18.8,19.1z"/>
		
			<linearGradient id="SVGID_00000012453718114733079550000004326247556846315183_" gradientUnits="userSpaceOnUse" x1="18.736" y1="14.2713" x2="22.0803" y2="14.2713">
			<stop  offset="1.711450e-02" style="stop-color:#FF7288"/>
			<stop  offset="0.9665" style="stop-color:#FF11A1"/>
		</linearGradient>
		<path style="fill-rule:evenodd;clip-rule:evenodd;fill:url(#SVGID_00000012453718114733079550000004326247556846315183_);" d="
			M19,13.9c-0.3,0-0.4,0.6-0.1,0.7c0.4,0.2,1.8,0,2.2,0c0.4,0,0.9,0.1,0.9,0.1C22.2,14.6,20.5,13.7,19,13.9z"/>
		<path class="st26" d="M19.3,23.4c0,0-0.3,0.6-0.7,1.1h0c0,0-0.1,0.1-0.1,0.1c-0.2,0.2-0.4,0.4-0.6,0.6c-0.3,0.2-0.8,0.3-1.3,0.4
			c-0.2,0-0.3,0-0.5,0c0,0,0,0,0,0c-0.3,0-0.6,0-0.8,0c0,0-0.1,0-0.1,0c0,0,0,0,0,0c0,0,0,0,0,0c0,0,0,0,0,0c0,0,0.1,0,0.1,0
			c0.2,0,0.5,0,1-0.1c0.3,0,0.6-0.1,1-0.2c0.3-0.1,0.6-0.3,0.9-0.5c0,0,0,0,0,0c0.1,0,0.1-0.1,0.2-0.1c0,0,0,0,0,0
			C18.9,24.1,19.3,23.5,19.3,23.4z"/>
		<path class="st26" d="M15.7,22.7c0,0-0.1-0.4,0.1-0.7c0.2-0.2,0.9-0.2,0.9-0.2S15.9,21.9,15.7,22.7z"/>
		
			<linearGradient id="SVGID_00000054224842834888189190000016120745063446854549_" gradientUnits="userSpaceOnUse" x1="26.5439" y1="13.6808" x2="26.5439" y2="7.343">
			<stop  offset="1.711450e-02" style="stop-color:#FF9FA6"/>
			<stop  offset="1" style="stop-color:#FF88C7"/>
		</linearGradient>
		<path style="fill-rule:evenodd;clip-rule:evenodd;fill:url(#SVGID_00000054224842834888189190000016120745063446854549_);" d="
			M28.8,9.4c-0.2,0.9-0.4,1.9-0.5,2.2c-0.3,0.8-1.7,2.2-3,2c-1.1-0.1-1.2-0.8-1.2-0.8s0-0.2,0.1-0.5c0,0,0,0,0,0
			c0.3-0.8,0.8-2.5,1.8-3.4c1.4-1.4,2.8-1.6,3-1.6C29.1,7.4,28.9,8.4,28.8,9.4z"/>
		
			<linearGradient id="SVGID_00000064312172485736821270000002304748881764145329_" gradientUnits="userSpaceOnUse" x1="28.7965" y1="23.3032" x2="28.7965" y2="15.7268">
			<stop  offset="1.711450e-02" style="stop-color:#5BC9EC"/>
			<stop  offset="0.9665" style="stop-color:#84A1FF"/>
		</linearGradient>
		<path style="fill-rule:evenodd;clip-rule:evenodd;fill:url(#SVGID_00000064312172485736821270000002304748881764145329_);" d="
			M28.3,15.7c0,0,0.5,1.7,2.2,2.4c1.7,0.8,1.7,2.1-0.5,2.6c-2.1,0.4-4.1,2.6-4.1,2.6s0.9-2,2.3-3c1-0.7,2.2-1.1,2.1-1.6
			C30.1,18.3,28.7,18.4,28.3,15.7z"/>
		<path class="st23" d="M22.5,16.9c0,0,0.7-0.2,1.1-0.9c0,0-0.7,0.5-1.6,0.7L22.5,16.9z"/>
	</g>
</g>
</svg>
